# xmcd CD database file
#
# Track frame offsets:
#	150
#	22160
#	35432
#	58625
#	77017
#	103702
#	119200
#	140515
#	156397
#
# Disc length: 2399 seconds
#
# Revision: 1
# Processed by: cddbd v1.5.1PL0 Copyright (c) Steve Scherf et al.
# Submitted via: CDex 1.51
#
DISCID=7f095d09
DTITLE=Obsession - Methods Of Madness
DYEAR=1987
DGENRE=Heavy Metal
TTITLE0=Four Play/Hard To The Core
TTITLE1=High Treason
TTITLE2=For The Love Of Money
TTITLE3=Killer Elite
TTITLE4=Desperate To Survive
TTITLE5=Methods Of Madness
TTITLE6=Too Wild To Tame
TTITLE7=Always On The Run
TTITLE8=Panic In The Streets
EXTD=YEAR: 1987
EXTT0=
EXTT1=
EXTT2=
EXTT3=
EXTT4=
EXTT5=
EXTT6=
EXTT7=
EXTT8=
PLAYORDER=
